<mxfile host="app.diagrams.net" agent="Mozilla/5.0 (Windows NT 10.0; Win64; x64) AppleWebKit/537.36 (KHTML, like Gecko) Chrome/129.0.0.0 Safari/537.36 Edg/129.0.0.0" version="24.7.16">
  <diagram name="Страница — 1" id="dlfvf2WR6GmjM3FiQFo4">
    <mxGraphModel dx="983" dy="552" grid="1" gridSize="10" guides="1" tooltips="1" connect="1" arrows="1" fold="1" page="1" pageScale="1" pageWidth="827" pageHeight="1169" math="0" shadow="0">
      <root>
        <mxCell id="0" />
        <mxCell id="1" parent="0" />
        <mxCell id="mPCPGlXylNYXk9JV0fqx-1" value="" style="whiteSpace=wrap;html=1;aspect=fixed;" vertex="1" parent="1">
          <mxGeometry x="200" y="75" width="530" height="530" as="geometry" />
        </mxCell>
        <mxCell id="mPCPGlXylNYXk9JV0fqx-2" value="Администратор&lt;div&gt;&lt;br&gt;&lt;/div&gt;" style="shape=umlActor;verticalLabelPosition=bottom;verticalAlign=top;html=1;outlineConnect=0;" vertex="1" parent="1">
          <mxGeometry x="160" y="310" width="30" height="60" as="geometry" />
        </mxCell>
        <mxCell id="mPCPGlXylNYXk9JV0fqx-7" value="Заполнение документа продажи товара" style="ellipse;whiteSpace=wrap;html=1;" vertex="1" parent="1">
          <mxGeometry x="390" y="360" width="130" height="60" as="geometry" />
        </mxCell>
        <mxCell id="mPCPGlXylNYXk9JV0fqx-8" value="Формирование отчёта" style="ellipse;whiteSpace=wrap;html=1;" vertex="1" parent="1">
          <mxGeometry x="325" y="470" width="110" height="50" as="geometry" />
        </mxCell>
        <mxCell id="mPCPGlXylNYXk9JV0fqx-9" value="Заполнение приходной накладной" style="ellipse;whiteSpace=wrap;html=1;" vertex="1" parent="1">
          <mxGeometry x="420" y="235" width="140" height="65" as="geometry" />
        </mxCell>
        <mxCell id="mPCPGlXylNYXk9JV0fqx-10" value="" style="endArrow=none;html=1;rounded=0;entryX=0.03;entryY=0.701;entryDx=0;entryDy=0;entryPerimeter=0;exitX=0;exitY=0.51;exitDx=0;exitDy=0;exitPerimeter=0;" edge="1" parent="1" source="mPCPGlXylNYXk9JV0fqx-1" target="mPCPGlXylNYXk9JV0fqx-9">
          <mxGeometry width="50" height="50" relative="1" as="geometry">
            <mxPoint x="210" y="350" as="sourcePoint" />
            <mxPoint x="286" y="253" as="targetPoint" />
          </mxGeometry>
        </mxCell>
        <mxCell id="mPCPGlXylNYXk9JV0fqx-11" value="" style="endArrow=none;html=1;rounded=0;entryX=0.046;entryY=0.34;entryDx=0;entryDy=0;entryPerimeter=0;exitX=0;exitY=0.509;exitDx=0;exitDy=0;exitPerimeter=0;" edge="1" parent="1" source="mPCPGlXylNYXk9JV0fqx-1" target="mPCPGlXylNYXk9JV0fqx-7">
          <mxGeometry width="50" height="50" relative="1" as="geometry">
            <mxPoint x="211" y="350" as="sourcePoint" />
            <mxPoint x="453" y="279" as="targetPoint" />
          </mxGeometry>
        </mxCell>
        <mxCell id="mPCPGlXylNYXk9JV0fqx-20" value="Заполнение информации о товаре" style="ellipse;whiteSpace=wrap;html=1;" vertex="1" parent="1">
          <mxGeometry x="290" y="170" width="140" height="65" as="geometry" />
        </mxCell>
        <mxCell id="mPCPGlXylNYXk9JV0fqx-23" value="" style="endArrow=none;html=1;rounded=0;entryX=0.3;entryY=0.974;entryDx=0;entryDy=0;entryPerimeter=0;exitX=0;exitY=0.51;exitDx=0;exitDy=0;exitPerimeter=0;" edge="1" parent="1" source="mPCPGlXylNYXk9JV0fqx-1" target="mPCPGlXylNYXk9JV0fqx-20">
          <mxGeometry width="50" height="50" relative="1" as="geometry">
            <mxPoint x="160" y="310" as="sourcePoint" />
            <mxPoint x="333" y="241" as="targetPoint" />
          </mxGeometry>
        </mxCell>
        <mxCell id="mPCPGlXylNYXk9JV0fqx-24" value="" style="endArrow=none;html=1;rounded=0;entryX=0.212;entryY=0.087;entryDx=0;entryDy=0;entryPerimeter=0;exitX=0.001;exitY=0.51;exitDx=0;exitDy=0;exitPerimeter=0;" edge="1" parent="1" source="mPCPGlXylNYXk9JV0fqx-1" target="mPCPGlXylNYXk9JV0fqx-8">
          <mxGeometry width="50" height="50" relative="1" as="geometry">
            <mxPoint x="200" y="350" as="sourcePoint" />
            <mxPoint x="406" y="390" as="targetPoint" />
          </mxGeometry>
        </mxCell>
      </root>
    </mxGraphModel>
  </diagram>
</mxfile>
